REM DIRINDEX 1\2,1\3,1\4
REM DIRNAME cjc105,folder01,folder02,folder03
TITLE ""
FILE "DISC3Track05.mp3" MP3
  TRACK 01 AUDIO
    TITLE "0:"
    INDEX 01 00:00:00
  TRACK 02 AUDIO
    TITLE "4:cjc105_4430"
    INDEX 01 00:00:15
  TRACK 03 AUDIO
    TITLE "0:"
    INDEX 01 00:03:39
  TRACK 04 AUDIO
    TITLE "3:cjc105_4431"
    INDEX 01 00:04:09
  TRACK 05 AUDIO
    TITLE "2:cjc105_4432"
    INDEX 01 00:05:16
  TRACK 06 AUDIO
    TITLE "3:cjc105_4433"
    INDEX 01 00:09:26
  TRACK 07 AUDIO
    TITLE "2:cjc105_4434"
    INDEX 01 00:10:23
  TRACK 08 AUDIO
    TITLE "3:cjc105_4435"
    INDEX 01 00:15:54
  TRACK 09 AUDIO
    TITLE "2:cjc105_4436"
    INDEX 01 00:16:51
  TRACK 10 AUDIO
    TITLE "3:cjc105_4437"
    INDEX 01 00:18:41
  TRACK 11 AUDIO
    TITLE "2:cjc105_4438"
    INDEX 01 00:19:50
  TRACK 12 AUDIO
    TITLE "3:cjc105_4439"
    INDEX 01 00:20:55
  TRACK 13 AUDIO
    TITLE "2:cjc105_4440"
    INDEX 01 00:21:55
  TRACK 14 AUDIO
    TITLE "3:cjc105_4441"
    INDEX 01 00:23:24
  TRACK 15 AUDIO
    TITLE "2:cjc105_4442"
    INDEX 01 00:23:73
  TRACK 16 AUDIO
    TITLE "3:cjc105_4443"
    INDEX 01 00:24:71
  TRACK 17 AUDIO
    TITLE "2:cjc105_4444"
    INDEX 01 00:26:07
  TRACK 18 AUDIO
    TITLE "3:cjc105_4445"
    INDEX 01 00:28:33
  TRACK 19 AUDIO
    TITLE "2:cjc105_4446"
    INDEX 01 00:29:50
  TRACK 20 AUDIO
    TITLE "3:cjc105_4447"
    INDEX 01 00:31:29
  TRACK 21 AUDIO
    TITLE "2:cjc105_4448"
    INDEX 01 00:32:33
  TRACK 22 AUDIO
    TITLE "3:cjc105_4449"
    INDEX 01 00:33:40
  TRACK 23 AUDIO
    TITLE "2:cjc105_4450"
    INDEX 01 00:34:40
  TRACK 24 AUDIO
    TITLE "3:cjc105_4451"
    INDEX 01 00:36:13
  TRACK 25 AUDIO
    TITLE "2:cjc105_4452"
    INDEX 01 00:37:16
  TRACK 26 AUDIO
    TITLE "3:cjc105_4453"
    INDEX 01 00:39:13
  TRACK 27 AUDIO
    TITLE "2:cjc105_4454"
    INDEX 01 00:40:05
  TRACK 28 AUDIO
    TITLE "3:cjc105_4455"
    INDEX 01 00:41:18
  TRACK 29 AUDIO
    TITLE "2:cjc105_4456"
    INDEX 01 00:42:21
  TRACK 30 AUDIO
    TITLE "3:cjc105_4457"
    INDEX 01 00:43:23
  TRACK 31 AUDIO
    TITLE "2:cjc105_4458"
    INDEX 01 00:44:34
  TRACK 32 AUDIO
    TITLE "3:cjc105_4459"
    INDEX 01 00:45:53
  TRACK 33 AUDIO
    TITLE "2:cjc105_4460"
    INDEX 01 00:46:62
  TRACK 34 AUDIO
    TITLE "3:cjc105_4461"
    INDEX 01 00:48:34
  TRACK 35 AUDIO
    TITLE "2:cjc105_4462"
    INDEX 01 00:49:39
  TRACK 36 AUDIO
    TITLE "3:cjc105_4463"
    INDEX 01 00:50:74
  TRACK 37 AUDIO
    TITLE "2:cjc105_4464"
    INDEX 01 00:52:04
  TRACK 38 AUDIO
    TITLE "3:cjc105_4465"
    INDEX 01 00:53:17
  TRACK 39 AUDIO
    TITLE "2:cjc105_4466"
    INDEX 01 00:54:27
  TRACK 40 AUDIO
    TITLE "3:cjc105_4467"
    INDEX 01 00:55:69
  TRACK 41 AUDIO
    TITLE "2:cjc105_4468"
    INDEX 01 00:56:72
  TRACK 42 AUDIO
    TITLE "3:cjc105_4469"
    INDEX 01 00:59:22
  TRACK 43 AUDIO
    TITLE "2:cjc105_4470"
    INDEX 01 01:00:31
  TRACK 44 AUDIO
    TITLE "3:cjc105_4471"
    INDEX 01 01:02:10
  TRACK 45 AUDIO
    TITLE "2:cjc105_4472"
    INDEX 01 01:03:20
  TRACK 46 AUDIO
    TITLE "3:cjc105_4473"
    INDEX 01 01:05:05
  TRACK 47 AUDIO
    TITLE "2:cjc105_4474"
    INDEX 01 01:06:26
  TRACK 48 AUDIO
    TITLE "3:cjc105_4475"
    INDEX 01 01:08:23
  TRACK 49 AUDIO
    TITLE "2:cjc105_4476"
    INDEX 01 01:09:34
  TRACK 50 AUDIO
    TITLE "3:cjc105_4477"
    INDEX 01 01:11:54
  TRACK 51 AUDIO
    TITLE "2:cjc105_4478"
    INDEX 01 01:12:56
  TRACK 52 AUDIO
    TITLE "3:cjc105_4479"
    INDEX 01 01:15:01
  TRACK 53 AUDIO
    TITLE "2:cjc105_4480"
    INDEX 01 01:16:09
  TRACK 54 AUDIO
    TITLE "3:cjc105_4481"
    INDEX 01 01:17:43
  TRACK 55 AUDIO
    TITLE "2:cjc105_4482"
    INDEX 01 01:18:58
  TRACK 56 AUDIO
    TITLE "3:cjc105_4483"
    INDEX 01 01:21:02
  TRACK 57 AUDIO
    TITLE "2:cjc105_4484"
    INDEX 01 01:22:23
  TRACK 58 AUDIO
    TITLE "3:cjc105_4485"
    INDEX 01 01:24:14
  TRACK 59 AUDIO
    TITLE "2:cjc105_4486"
    INDEX 01 01:25:15
  TRACK 60 AUDIO
    TITLE "3:cjc105_4487"
    INDEX 01 01:28:00
  TRACK 61 AUDIO
    TITLE "2:cjc105_4488"
    INDEX 01 01:29:03
  TRACK 62 AUDIO
    TITLE "3:cjc105_4489"
    INDEX 01 01:30:48
  TRACK 63 AUDIO
    TITLE "2:cjc105_4490"
    INDEX 01 01:31:51
  TRACK 64 AUDIO
    TITLE "0:"
    INDEX 01 01:36:25
